<?xml version="1.0" encoding="UTF-8"?>
<svg width="15px" height="21px" viewBox="0 0 15 21" version="1.1" xmlns="http://www.w3.org/2000/svg" xmlns:xlink="http://www.w3.org/1999/xlink">
    <title>?</title>
    <g id="Page-1" stroke="none" stroke-width="1" fill="none" fill-rule="evenodd">
        <g id="001a_Home_v7" transform="translate(-1162.000000, -42.000000)" fill="#FFFFFF" fill-rule="nonzero">
            <g id="Group-15" transform="translate(1147.000000, 30.000000)">
                <g id="?" transform="translate(15.240000, 12.360000)">
                    <path d="M3.75,14.07 C3.75,14.7 3.99,14.94 4.62,14.94 L7.86,14.94 C8.49,14.94 8.7,14.7 8.7,14.07 L8.7,13.41 C8.7,12.54 8.91,12.33 9.84,11.91 L11.61,11.13 C12.96,10.53 14.52,9.24 14.52,6.15 L14.52,5.13 C14.49,2.55 12.6,0 7.2,0 C1.8,0 0,2.55 0,5.13 L0,6.99 C0,7.62 0.24,7.89 0.87,7.89 L3.96,7.89 C4.59,7.89 4.8,7.62 4.8,6.99 L4.8,5.91 C4.8,4.53 5.79,3.96 7.2,3.96 C8.61,3.96 9.63,4.53 9.63,5.91 L9.63,6.33 C9.63,7.32 9.15,7.68 8.67,7.92 L5.58,9.48 C4.56,9.99 3.75,10.5 3.75,12.12 L3.75,14.07 Z M8.7,17.28 C8.7,16.65 8.49,16.38 7.86,16.38 L4.62,16.38 C3.99,16.38 3.75,16.65 3.75,17.28 L3.75,19.77 C3.75,20.4 3.99,20.64 4.62,20.64 L7.86,20.64 C8.49,20.64 8.7,20.4 8.7,19.77 L8.7,17.28 Z" id="Shape"></path>
                </g>
            </g>
        </g>
    </g>
</svg>