<?xml version="1.0" encoding="UTF-8"?>
<svg width="21px" height="24px" viewBox="0 0 21 24" version="1.1" xmlns="http://www.w3.org/2000/svg" xmlns:xlink="http://www.w3.org/1999/xlink">
    <title>Group 7</title>
    <defs>
        <polygon id="path-1" points="0 0 5.2448625 0 5.2448625 2.50052101 0 2.50052101"></polygon>
        <polygon id="path-3" points="0 0 21 0 21 20.5978714 0 20.5978714"></polygon>
    </defs>
    <g id="Page-1" stroke="none" stroke-width="1" fill="none" fill-rule="evenodd">
        <g id="001a_Home_v7" transform="translate(-1208.000000, -41.000000)">
            <g id="Group-9" transform="translate(1197.000000, 30.000000)">
                <g id="Group-13-Copy-2" transform="translate(11.000000, 5.000000)">
                    <g id="Group-7" transform="translate(0.000000, 6.000000)">
                        <g id="Group-3" transform="translate(7.873258, 21.499479)">
                            <mask id="mask-2" fill="white">
                                <use xlink:href="#path-1"></use>
                            </mask>
                            <g id="Clip-2"></g>
                            <path d="M0.76940555,1.76575566 C1.24438741,2.21907596 1.89992745,2.50057324 2.62216014,2.50057324 L2.62216014,2.50057324 C3.34710392,2.50057324 4.00264395,2.21907596 4.4770836,1.76575566 C4.95152324,1.31243537 5.2448625,0.687292059 5.2448625,0 L0,0 C0,0.687292059 0.294423688,1.31243537 0.76940555,1.76575566" id="Fill-1" fill="#FFFFFF" mask="url(#mask-2)"></path>
                        </g>
                        <g id="Group-6">
                            <mask id="mask-4" fill="white">
                                <use xlink:href="#path-3"></use>
                            </mask>
                            <g id="Clip-5"></g>
                            <path d="M18.3816896,16.8485783 L18.3811474,16.8480561 L18.3811474,10.6122908 C18.3811474,6.76324632 16.2231248,3.56702489 12.4709849,2.72618887 L12.4709849,1.87490767 C12.4709849,0.840836029 11.5925938,0 10.5027382,0 C10.5016538,0 10.5011115,0 10.5000271,0 C10.4989427,0 10.4984005,0 10.497316,0 C9.40746039,0 8.52906927,0.840836029 8.52906927,1.87490767 L8.52906927,2.72618887 C4.77692945,3.56702489 2.61890684,6.76324632 2.61890684,10.6122908 L2.61890684,16.8480561 L2.61836462,16.8485783 C0.000542216737,16.967131 0,19.3444513 0,19.3444513 L0,20.5978714 L21.0000542,20.5978714 L21.0000542,19.3444513 C21.0000542,19.3444513 20.999512,16.967131 18.3816896,16.8485783" id="Fill-4" fill="#FFFFFF" mask="url(#mask-4)"></path>
                        </g>
                    </g>
                </g>
            </g>
        </g>
    </g>
</svg>